# xmcd CD database file
#
# Track frame offsets:
#	150
#	29556
#	60785
#	78634
#	102872
#	125988
#	152800
#	175243
#	199602
#	224030
#	248211
#
# Disc length: 3758 seconds
#
# Revision: 18
# Processed by: cddbd v1.4PL0 Copyright (c) Steve Scherf et al.
# Submitted via: CDex 1.50beta10
#
DISCID=9d0eac0b
DTITLE=FATBOY SLIM - YOU'VE COME A LONG WAY BABY
DYEAR=1998
DGENRE=New Age
TTITLE0=RIGHT HERE, RIGHT NOW
TTITLE1=THE ROCKAFELLER SKANK
TTITLE2=FUCKIN IN HEAVEN
TTITLE3=GANGSTER TRIPPING
TTITLE4=BUILD IT UP - TEAR IT DOWN
TTITLE5=KALIFORNIA
TTITLE6=SOUL SURFING
TTITLE7=YOU'RE NOT FROM BRIGHTON
TTITLE8=PRAISE YOU
TTITLE9=LOVE ISLAND
TTITLE10=ACID 8000
EXTD=YEAR: 1998
EXTT0=
EXTT1=
EXTT2=
EXTT3=
EXTT4=
EXTT5=
EXTT6=
EXTT7=
EXTT8=
EXTT9=
EXTT10=
PLAYORDER=
